<svg width="144" height="132" viewBox="0 0 144 132" fill="none" xmlns="http://www.w3.org/2000/svg">
<path d="M46.154 3.709C55.766 3.709 64.043 6.23066 70.985 11.274C77.927 16.258 83.2967 23.4967 87.094 32.99C90.8913 42.4833 92.79 53.9643 92.79 67.433C92.79 81.3763 90.832 93.154 86.916 102.766C83 112.319 77.5413 119.557 70.54 124.482C63.5387 129.347 55.41 131.78 46.154 131.78C36.3047 131.78 27.9683 129.199 21.145 124.037C14.3217 118.875 9.13 111.429 5.57 101.698C2.01 91.9673 0.23 80.249 0.23 66.543C0.23 53.6677 2.099 42.5427 5.837 33.168C9.63433 23.7933 14.9743 16.5547 21.857 11.452C28.7397 6.29 36.8387 3.709 46.154 3.709ZM73.655 72.239C73.655 56.5157 72.6167 43.6997 70.54 33.791C68.4633 23.8823 65.3483 16.614 61.195 11.986C57.101 7.29866 51.9687 4.95499 45.798 4.95499C39.8647 4.95499 34.94 7.00199 31.024 11.096C27.108 15.19 24.171 21.4793 22.213 29.964C20.3143 38.3893 19.365 49.188 19.365 62.36C19.365 78.3207 20.3737 91.3443 22.391 101.431C24.4083 111.458 27.464 118.816 31.558 123.503C35.7113 128.19 40.903 130.534 47.133 130.534C52.4137 130.534 57.0417 128.695 61.017 125.016C64.9923 121.337 68.0777 115.256 70.273 106.771C72.5277 98.2863 73.655 86.7757 73.655 72.239ZM91.5162 11.452L105.4 11.897C106.172 11.897 106.765 12.1343 107.18 12.609C107.655 13.0837 107.892 13.855 107.892 14.923V122.435C107.892 123.859 107.507 124.897 106.735 125.55C106.023 126.203 105.074 126.618 103.887 126.796L90.8932 128.576C90.1812 128.754 89.8252 128.991 89.8252 129.288C89.8252 129.466 89.9142 129.644 90.0922 129.822C90.3295 129.941 90.5669 130 90.8042 130H142.691C143.047 130 143.285 129.941 143.403 129.822C143.581 129.703 143.67 129.555 143.67 129.377C143.67 129.14 143.344 128.962 142.691 128.843L129.786 126.796C128.718 126.559 127.858 126.084 127.205 125.372C126.553 124.66 126.226 123.681 126.226 122.435V2.19599C126.226 1.36533 125.959 0.949996 125.425 0.949996C125.129 0.949996 124.891 1.06866 124.713 1.30599C124.535 1.48399 124.328 1.78066 124.09 2.19599C122.37 5.34066 120.085 7.38766 117.237 8.33699C114.389 9.22699 110.355 9.70166 105.133 9.76099L91.4272 10.117C91.1899 10.117 90.9822 10.1763 90.8042 10.295C90.6262 10.4137 90.5372 10.5917 90.5372 10.829C90.5372 10.9477 90.5965 11.096 90.7152 11.274C90.8932 11.3927 91.1602 11.452 91.5162 11.452Z" fill="#D8D8D8"/>
</svg>
