<svg width="175" height="129" viewBox="0 0 175 129" fill="none" xmlns="http://www.w3.org/2000/svg">
<path d="M46.154 0.708997C55.766 0.708997 64.043 3.23066 70.985 8.27399C77.927 13.258 83.2967 20.4967 87.094 29.99C90.8913 39.4833 92.79 50.9643 92.79 64.433C92.79 78.3763 90.832 90.154 86.916 99.766C83 109.319 77.5413 116.557 70.54 121.482C63.5387 126.347 55.41 128.78 46.154 128.78C36.3047 128.78 27.9683 126.199 21.145 121.037C14.3217 115.875 9.13 108.429 5.57 98.698C2.01 88.9673 0.23 77.249 0.23 63.543C0.23 50.6677 2.099 39.5427 5.837 30.168C9.63433 20.7933 14.9743 13.5547 21.857 8.452C28.7397 3.29 36.8387 0.708997 46.154 0.708997ZM73.655 69.239C73.655 53.5157 72.6167 40.6997 70.54 30.791C68.4633 20.8823 65.3483 13.614 61.195 8.98599C57.101 4.29866 51.9687 1.95499 45.798 1.95499C39.8647 1.95499 34.94 4.00199 31.024 8.09599C27.108 12.19 24.171 18.4793 22.213 26.964C20.3143 35.3893 19.365 46.188 19.365 59.36C19.365 75.3207 20.3737 88.3443 22.391 98.431C24.4083 108.458 27.464 115.816 31.558 120.503C35.7113 125.19 40.903 127.534 47.133 127.534C52.4137 127.534 57.0417 125.695 61.017 122.016C64.9923 118.337 68.0777 112.256 70.273 103.771C72.5277 95.2863 73.655 83.7757 73.655 69.239ZM100.594 102.881L99.9712 102.169L118.038 89.175C125.93 83.4197 132.308 77.694 137.173 71.998C142.039 66.2427 145.599 60.1907 147.853 53.842C150.167 47.4933 151.324 40.6107 151.324 33.194C151.324 25.896 150.345 19.933 148.387 15.305C146.489 10.6177 143.937 7.17633 140.733 4.981C137.589 2.78566 134.147 1.68799 130.409 1.68799C123.764 1.68799 118.721 3.58666 115.279 7.38399C111.897 11.122 110.206 15.9577 110.206 21.891V31.77C110.206 34.974 109.376 37.5253 107.714 39.424C106.053 41.2633 103.976 42.183 101.484 42.183C98.8142 42.183 96.7079 41.382 95.1652 39.78C93.6819 38.178 92.9402 35.8343 92.9402 32.749C92.9402 27.2903 94.5422 22.1283 97.7462 17.263C100.95 12.3383 105.578 8.33333 111.63 5.248C117.742 2.16266 125.099 0.619993 133.702 0.619993C141.416 0.619993 147.972 1.98466 153.371 4.71399C158.83 7.44333 162.983 11.1813 165.831 15.928C168.739 20.6153 170.192 25.985 170.192 32.037C170.192 38.3263 168.739 44.2893 165.831 49.926C162.983 55.5627 158.296 61.3477 151.769 67.281C145.302 73.2143 136.639 79.83 125.781 87.128L100.594 102.881ZM90.7152 119.079C90.7152 113.086 92.8215 108.162 97.0342 104.305C101.306 100.448 107.299 98.52 115.012 98.52C118.394 98.52 121.925 99.1727 125.603 100.478C129.282 101.783 132.99 103.296 136.728 105.017C140.466 106.738 144.115 108.251 147.675 109.556C151.295 110.861 154.706 111.514 157.91 111.514C162.123 111.514 165.416 110.594 167.789 108.755C170.222 106.856 172.21 103.415 173.752 98.431C173.871 98.1937 173.99 98.0453 174.108 97.986C174.227 97.8673 174.316 97.8377 174.375 97.897C174.494 97.9563 174.583 98.0453 174.642 98.164C174.702 98.2233 174.702 98.3717 174.642 98.609C173.574 106.263 171.943 112.256 169.747 116.587C167.552 120.918 164.882 123.974 161.737 125.754C158.593 127.534 154.973 128.424 150.879 128.424C147.497 128.424 144.382 127.801 141.534 126.555C138.746 125.309 135.957 123.203 133.168 120.236C130.38 117.21 127.324 113.057 124.001 107.776C121.272 104.75 119.047 102.644 117.326 101.457C115.665 100.211 114.211 99.588 112.965 99.588C110.948 99.588 109.376 100.597 108.248 102.614C107.18 104.631 106.587 108.28 106.468 113.561C106.231 117.358 105.697 120.325 104.866 122.461C104.095 124.597 103.057 126.08 101.751 126.911C100.446 127.742 98.9329 128.157 97.2122 128.157C95.1949 128.157 93.5929 127.326 92.4062 125.665C91.2789 124.004 90.7152 121.808 90.7152 119.079Z" fill="#D8D8D8"/>
</svg>
