<svg width="170" height="129" viewBox="0 0 170 129" fill="none" xmlns="http://www.w3.org/2000/svg">
<path d="M46.154 0.708997C55.766 0.708997 64.043 3.23066 70.985 8.27399C77.927 13.258 83.2967 20.4967 87.094 29.99C90.8913 39.4833 92.79 50.9643 92.79 64.433C92.79 78.3763 90.832 90.154 86.916 99.766C83 109.319 77.5413 116.557 70.54 121.482C63.5387 126.347 55.41 128.78 46.154 128.78C36.3047 128.78 27.9683 126.199 21.145 121.037C14.3217 115.875 9.13 108.429 5.57 98.698C2.01 88.9673 0.23 77.249 0.23 63.543C0.23 50.6677 2.099 39.5427 5.837 30.168C9.63433 20.7933 14.9743 13.5547 21.857 8.452C28.7397 3.29 36.8387 0.708997 46.154 0.708997ZM73.655 69.239C73.655 53.5157 72.6167 40.6997 70.54 30.791C68.4633 20.8823 65.3483 13.614 61.195 8.98599C57.101 4.29866 51.9687 1.95499 45.798 1.95499C39.8647 1.95499 34.94 4.00199 31.024 8.09599C27.108 12.19 24.171 18.4793 22.213 26.964C20.3143 35.3893 19.365 46.188 19.365 59.36C19.365 75.3207 20.3737 88.3443 22.391 98.431C24.4083 108.458 27.464 115.816 31.558 120.503C35.7113 125.19 40.903 127.534 47.133 127.534C52.4137 127.534 57.0417 125.695 61.017 122.016C64.9923 118.337 68.0777 112.256 70.273 103.771C72.5277 95.2863 73.655 83.7757 73.655 69.239ZM117.682 60.339L117.326 59.538C117.801 59.538 118.424 59.538 119.195 59.538C119.967 59.538 120.708 59.538 121.42 59.538C122.192 59.538 122.755 59.538 123.111 59.538C132.071 59.538 139.843 60.695 146.429 63.009C153.015 65.2637 158.088 68.8237 161.648 73.689C165.208 78.495 166.988 84.6953 166.988 92.29C166.988 99.7067 165.268 106.144 161.826 111.603C158.444 117.062 153.698 121.304 147.586 124.33C141.475 127.297 134.385 128.78 126.315 128.78C118.483 128.78 111.808 127.653 106.29 125.398C100.832 123.084 96.6485 119.999 93.7412 116.142C90.8932 112.226 89.4692 107.776 89.4692 102.792C89.4692 99.1133 90.3295 96.1763 92.0502 93.981C93.8302 91.7263 95.9662 90.599 98.4582 90.599C100.535 90.599 102.285 91.4297 103.709 93.091C105.193 94.7523 105.934 96.9477 105.934 99.677V109.378C105.934 114.777 107.685 119.198 111.185 122.639C114.745 126.08 119.967 127.771 126.849 127.712C131.537 127.653 135.601 126.496 139.042 124.241C142.484 121.927 145.154 118.426 147.052 113.739C149.01 109.052 149.989 103.118 149.989 95.939C149.989 84.191 147.468 75.469 142.424 69.773C137.381 64.0177 130.765 61.14 122.577 61.14H117.326C116.911 61.14 116.585 61.0807 116.347 60.962C116.169 60.784 116.08 60.5467 116.08 60.25C116.08 60.072 116.169 59.894 116.347 59.716C116.585 59.4787 116.881 59.1523 117.237 58.737L155.329 15.928L155.507 16.64H102.641C101.87 16.64 101.158 16.8773 100.505 17.352C99.9119 17.7673 99.4965 18.4497 99.2592 19.399L95.6102 33.194C95.5509 33.4313 95.4322 33.6093 95.2542 33.728C95.0762 33.7873 94.8685 33.817 94.6312 33.817C94.4532 33.817 94.3049 33.728 94.1862 33.55C94.0675 33.3127 94.0379 33.0753 94.0972 32.838L97.8352 4.62499C97.8945 3.97233 98.0725 3.43833 98.3692 3.023C98.7252 2.60766 99.2295 2.39999 99.8822 2.39999H168.234C168.531 2.39999 168.768 2.48899 168.946 2.66699C169.184 2.84499 169.302 3.112 169.302 3.468C169.302 3.70533 169.213 4.002 169.035 4.358C168.857 4.65466 168.561 5.04033 168.145 5.515L117.682 60.339Z" fill="#D8D8D8"/>
</svg>
